<svg xmlns="http://www.w3.org/2000/svg" viewBox="0 0 400 400" role="img" aria-label="Harlequin d'Alsace">
  <defs><radialGradient id="g" cx="35%" cy="30%" r="85%"><stop offset="0" stop-color="#dfe7d2"/><stop offset="1" stop-color="#b9caa0"/></radialGradient></defs>
  <rect width="400" height="400" fill="url(#g)"/>
  <g fill="#3d5e46" opacity=".07"><ellipse cx="330" cy="70" rx="14" ry="44" transform="rotate(25 330 70)"/><ellipse cx="60" cy="340" rx="12" ry="38" transform="rotate(-30 60 340)"/></g>
  <ellipse cx="200" cy="335" rx="110" ry="14" fill="#3d5e46" opacity=".12"/>
  <circle cx="167.52824611150538" cy="195.78592033045456" r="20" fill="#3d5e46" opacity="0.55"/><circle cx="162.42350608365007" cy="180.11257862274323" r="24" fill="#3d5e46" opacity="0.7000000000000001"/><circle cx="162.6401084899599" cy="160.94621081193662" r="28" fill="#3d5e46" opacity="0.8500000000000001"/><circle cx="169.3863958909883" cy="141.21848384991404" r="32" fill="#3d5e46" opacity="0.55"/><circle cx="190.30034210538955" cy="152.9325649000804" r="20" fill="#3d5e46" opacity="0.7000000000000001"/><circle cx="201.21198278817644" cy="144.0249541578334" r="24" fill="#3d5e46" opacity="0.8500000000000001"/><circle cx="215.80598802073595" cy="140.82031125097933" r="28" fill="#3d5e46" opacity="0.55"/><circle cx="232.04806678834439" cy="145.33245349092542" r="32" fill="#3d5e46" opacity="0.7000000000000001"/><circle cx="247.27641984520707" cy="158.42914401155235" r="20" fill="#3d5e46" opacity="0.8500000000000001"/><circle cx="234.84773588033568" cy="183.79071964536584" r="24" fill="#3d5e46" opacity="0.55"/><circle cx="239.9250247861218" cy="200.50538521333527" r="28" fill="#3d5e46" opacity="0.7000000000000001"/><circle cx="239.3977037742241" cy="220.6385413255941" r="32" fill="#3d5e46" opacity="0.8500000000000001"/><circle cx="232.0949075336413" cy="241.14191209283206" r="20" fill="#3d5e46" opacity="0.55"/><circle cx="210.44578542496512" cy="229.91877626145188" r="24" fill="#3d5e46" opacity="0.7000000000000001"/><circle cx="198.7089748560729" cy="238.97341839709048" r="28" fill="#3d5e46" opacity="0.8500000000000001"/><circle cx="183.2993334120525" cy="241.9634447159463" r="32" fill="#3d5e46" opacity="0.55"/><circle cx="166.34952987223838" cy="236.9009238345283" r="20" fill="#3d5e46" opacity="0.7000000000000001"/><circle cx="171.77527173420475" cy="208.84827223190905" r="24" fill="#3d5e46" opacity="0.8500000000000001"/><circle cx="200" cy="190" r="42" fill="#3d5e46"/><path d="M200 240 C 196 280, 204 300, 200 330" stroke="#3d5e46" stroke-width="8" fill="none" stroke-linecap="round"/>
      <g fill="#f3c26b" opacity=".75"><circle cx="181" cy="165" r="3"/><circle cx="234" cy="194" r="3"/><circle cx="207" cy="223" r="3"/><circle cx="180" cy="162" r="3"/><circle cx="233" cy="191" r="3"/><circle cx="206" cy="220" r="3"/><circle cx="179" cy="159" r="3"/><circle cx="232" cy="188" r="3"/><circle cx="205" cy="217" r="3"/><circle cx="178" cy="156" r="3"/><circle cx="231" cy="185" r="3"/><circle cx="204" cy="214" r="3"/><circle cx="177" cy="153" r="3"/><circle cx="230" cy="182" r="3"/></g>
  <text x="200" y="382" text-anchor="middle" font-family="Arial, sans-serif" font-size="11" letter-spacing="2" fill="#3d5e46" opacity=".55">VISUEL DE DÉMONSTRATION</text>
</svg>
